<?xml version="1.0" standalone="no"?>
<!DOCTYPE svg PUBLIC "-//W3C//DTD SVG 20010904//EN"
 "http://www.w3.org/TR/2001/REC-SVG-20010904/DTD/svg10.dtd">
<svg version="1.0" xmlns="http://www.w3.org/2000/svg"
 width="512.000000pt" height="512.000000pt" viewBox="0 0 512.000000 512.000000"
 preserveAspectRatio="xMidYMid meet">
<metadata>
Created by potrace 1.14, written by Peter Selinger 2001-2017
</metadata>
<g transform="translate(0.000000,512.000000) scale(0.100000,-0.100000)"
fill="#000000" stroke="none">
<path d="M3020 4900 c-205 -39 -306 -331 -207 -600 74 -203 240 -351 392 -351
71 0 114 12 157 43 49 34 72 59 100 108 43 75 56 136 53 251 -3 115 -19 178
-71 282 -40 80 -43 84 -113 155 -89 89 -207 132 -311 112z"/>
<path d="M4095 4895 c-69 -20 -118 -51 -175 -109 -118 -119 -178 -265 -185
-441 -7 -223 126 -398 303 -396 30 0 64 3 75 7 197 58 352 284 362 529 6 147
-23 246 -96 329 -64 74 -190 109 -284 81z"/>
<path d="M2580 4052 c-73 -9 -127 -45 -173 -114 -106 -163 -66 -445 89 -616
127 -141 290 -160 401 -46 139 143 108 475 -61 661 -70 77 -177 125 -256 115z"/>
<path d="M4559 4036 c-262 -93 -388 -576 -199 -765 88 -87 236 -90 339 -6 155
126 238 361 195 553 -16 74 -33 109 -76 158 -59 67 -169 92 -259 60z"/>
<path d="M3580 3729 c-74 -8 -109 -18 -166 -47 -87 -44 -178 -164 -224 -294
-37 -104 -49 -124 -121 -193 -205 -199 -257 -269 -283 -382 -60 -265 104 -464
382 -464 104 0 140 10 277 74 85 39 124 52 172 55 58 4 69 1 170 -47 59 -28
131 -57 158 -66 47 -14 183 -21 231 -11 136 28 219 90 273 206 23 48 26 67 25
155 -1 167 -51 255 -252 442 -109 102 -110 103 -148 200 -44 116 -74 173 -121
230 -58 72 -157 128 -247 139 -23 3 -45 6 -51 7 -5 2 -39 0 -75 -4z"/>
<path d="M910 2769 c-159 -22 -258 -154 -266 -354 -9 -245 114 -476 303 -566
222 -107 427 50 438 335 11 316 -235 619 -475 585z"/>
<path d="M1997 2769 c-205 -31 -383 -274 -393 -539 -9 -252 111 -414 307 -414
304 0 540 486 385 792 -27 53 -101 127 -144 143 -48 19 -106 25 -155 18z"/>
<path d="M372 1895 c-176 -90 -211 -367 -76 -613 47 -87 106 -147 180 -183 63
-31 134 -40 187 -23 113 36 186 162 187 323 1 84 -3 113 -27 186 -61 192 -191
319 -335 331 -55 5 -70 2 -116 -21z"/>
<path d="M2432 1906 c-196 -64 -338 -366 -285 -607 51 -237 276 -305 453 -138
159 151 220 442 130 619 -21 42 -73 96 -112 116 -41 21 -136 26 -186 10z"/>
<path d="M1390 1589 c-59 -12 -137 -51 -181 -91 -70 -64 -107 -126 -170 -288
-27 -70 -37 -84 -170 -215 -123 -123 -145 -150 -182 -223 -37 -74 -41 -92 -43
-167 -5 -128 29 -220 107 -295 87 -82 275 -118 421 -80 24 7 90 35 148 62 92
45 113 51 170 52 59 1 76 -4 176 -52 122 -58 214 -82 301 -77 130 6 202 34
278 109 71 69 98 140 98 256 0 157 -48 244 -240 430 l-128 126 -43 110 c-47
121 -81 178 -142 240 -90 92 -250 133 -400 103z"/>
</g>
</svg>
